<?xml version="1.0" standalone="no"?>
<!DOCTYPE svg PUBLIC "-//W3C//DTD SVG 20010904//EN"
 "http://www.w3.org/TR/2001/REC-SVG-20010904/DTD/svg10.dtd">
<svg version="1.0" xmlns="http://www.w3.org/2000/svg"
 width="260.000000pt" height="260.000000pt" viewBox="0 0 260.000000 260.000000"
 preserveAspectRatio="xMidYMid meet">
<metadata>
Created by potrace 1.11, written by Peter Selinger 2001-2013
</metadata>
<g transform="translate(0.000000,260.000000) scale(0.100000,-0.100000)"
fill="#000000" stroke="none">
<path d="M200 2591 c-83 -26 -150 -88 -180 -168 -20 -53 -20 -74 -20 -1123 0
-1049 0 -1070 20 -1123 23 -62 72 -117 133 -150 l42 -22 1105 0 1105 0 42 22
c61 33 110 88 133 150 20 53 20 74 20 1123 0 1049 0 1070 -20 1123 -23 62 -72
117 -133 150 l-42 22 -1090 2 c-600 1 -1101 -2 -1115 -6z m2115 -214 c26 -14
48 -37 63 -67 l22 -44 0 -966 0 -966 -22 -44 c-15 -30 -37 -53 -63 -67 l-40
-23 -975 0 -975 0 -40 23 c-26 14 -48 37 -63 67 l-22 44 0 966 0 966 23 44
c14 30 36 53 62 67 l40 23 975 0 975 0 40 -23z"/>
<path d="M447 2242 c-15 -17 -17 -60 -17 -415 0 -346 2 -398 16 -411 23 -24
665 -24 688 0 14 13 16 65 16 413 0 373 -1 399 -18 414 -17 15 -55 17 -344 17
-302 0 -326 -1 -341 -18z m561 -234 l3 -108 -221 0 -220 0 0 103 c0 57 3 107
7 111 4 3 102 5 217 4 l211 -3 3 -107z m2 -363 l0 -105 -220 0 -220 0 0 105 0
105 220 0 220 0 0 -105z"/>
<path d="M1467 2242 c-16 -17 -17 -98 -17 -955 0 -837 2 -937 16 -951 13 -14
59 -16 344 -16 285 0 331 2 344 16 14 14 16 114 16 953 0 896 -1 939 -18 954
-17 15 -55 17 -344 17 -302 0 -326 -1 -341 -18z"/>
</g>
</svg>
